<mxfile host="app.diagrams.net" modified="2023-05-26T03:30:20.564Z" agent="Mozilla/5.0 (Windows NT 10.0; Win64; x64) AppleWebKit/537.36 (KHTML, like Gecko) Chrome/113.0.0.0 Safari/537.36 Edg/113.0.1774.50" version="21.3.4" etag="Vk6r3ii-PF16rMED6geK" type="github">
  <diagram name="Page-1" id="9nQZp-bhMbMmAc3_5lMY">
    <mxGraphModel>
      <root>
        <mxCell id="0" />
        <mxCell id="1" parent="0" />
      </root>
    </mxGraphModel>
  </diagram>
</mxfile>
